<mxfile host="Electron" modified="2023-12-10T03:01:08.385Z" agent="Mozilla/5.0 (Windows NT 10.0; Win64; x64) AppleWebKit/537.36 (KHTML, like Gecko) draw.io/22.1.2 Chrome/114.0.5735.289 Electron/25.9.4 Safari/537.36" etag="tYGpJEVouX0nyIqAv5jI" version="22.1.2" type="device">
  <diagram id="C5RBs43oDa-KdzZeNtuy" name="Page-1">
    <mxGraphModel dx="1107" dy="937" grid="1" gridSize="10" guides="1" tooltips="1" connect="1" arrows="1" fold="1" page="1" pageScale="1" pageWidth="827" pageHeight="1169" math="0" shadow="0">
      <root>
        <mxCell id="WIyWlLk6GJQsqaUBKTNV-0" />
        <mxCell id="WIyWlLk6GJQsqaUBKTNV-1" parent="WIyWlLk6GJQsqaUBKTNV-0" />
        <mxCell id="cqikhGX2qWTY4pSoXQ4K-0" value="&lt;p style=&quot;margin:0px;margin-top:4px;text-align:center;text-decoration:underline;&quot;&gt;&lt;b&gt;:Tài khoản&lt;/b&gt;&lt;/p&gt;&lt;hr&gt;&lt;p style=&quot;margin:0px;margin-left:8px;&quot;&gt;email = &quot;nguyenvana@gmail.com&quot;&lt;br&gt;username = &quot;nguyena&quot;&lt;br&gt;password = &quot;*****&quot;&lt;/p&gt;&lt;p style=&quot;margin:0px;margin-left:8px;&quot;&gt;vaitro = &quot;Học viên&quot;&lt;/p&gt;&lt;p style=&quot;margin:0px;margin-left:8px;&quot;&gt;matkhauungdung = NULL&lt;/p&gt;" style="verticalAlign=top;align=left;overflow=fill;fontSize=12;fontFamily=Helvetica;html=1;whiteSpace=wrap;fillColor=#fff2cc;strokeColor=#d6b656;gradientColor=#ffd966;" parent="WIyWlLk6GJQsqaUBKTNV-1" vertex="1">
          <mxGeometry x="1420" y="304" width="200" height="110" as="geometry" />
        </mxCell>
        <mxCell id="cqikhGX2qWTY4pSoXQ4K-1" value="&lt;p style=&quot;margin:0px;margin-top:4px;text-align:center;text-decoration:underline;&quot;&gt;&lt;b&gt;:Tài khoản&lt;/b&gt;&lt;/p&gt;&lt;hr&gt;&lt;p style=&quot;margin:0px;margin-left:8px;&quot;&gt;email = &quot;admin@courseonline.com&quot;&lt;br&gt;username = &quot;admin&quot;&lt;br&gt;password = &quot;*****&quot;&lt;/p&gt;&lt;p style=&quot;margin:0px;margin-left:8px;&quot;&gt;vaitro = &quot;Quản lý&quot;&lt;/p&gt;&lt;p style=&quot;margin:0px;margin-left:8px;&quot;&gt;matkhauungdung = NULL&lt;/p&gt;" style="verticalAlign=top;align=left;overflow=fill;fontSize=12;fontFamily=Helvetica;html=1;whiteSpace=wrap;fillColor=#fff2cc;strokeColor=#d6b656;gradientColor=#ffd966;" parent="WIyWlLk6GJQsqaUBKTNV-1" vertex="1">
          <mxGeometry x="1960" y="305" width="200" height="110" as="geometry" />
        </mxCell>
        <mxCell id="cqikhGX2qWTY4pSoXQ4K-2" value="&lt;p style=&quot;margin:0px;margin-top:4px;text-align:center;text-decoration:underline;&quot;&gt;&lt;b&gt;:Con người&lt;/b&gt;&lt;/p&gt;&lt;hr&gt;&lt;p style=&quot;margin:0px;margin-left:8px;&quot;&gt;id = 049204883838&lt;/p&gt;&lt;p style=&quot;margin:0px;margin-left:8px;&quot;&gt;ten = &quot;Nguyễn Văn A&quot;&lt;/p&gt;&lt;p style=&quot;margin:0px;margin-left:8px;&quot;&gt;gioitinh = &quot;Nam&quot;&lt;/p&gt;&lt;p style=&quot;margin:0px;margin-left:8px;&quot;&gt;quequan = &quot;Quảng Nam&quot;&lt;/p&gt;&lt;p style=&quot;margin:0px;margin-left:8px;&quot;&gt;email = &quot;nguyenvana@gmail.com&quot;&lt;/p&gt;&lt;p style=&quot;margin:0px;margin-left:8px;&quot;&gt;sdt = &quot;0123456789&quot;&lt;/p&gt;" style="verticalAlign=top;align=left;overflow=fill;fontSize=12;fontFamily=Helvetica;html=1;whiteSpace=wrap;fillColor=#fff2cc;strokeColor=#d6b656;gradientColor=#ffd966;" parent="WIyWlLk6GJQsqaUBKTNV-1" vertex="1">
          <mxGeometry x="1140" y="304" width="200" height="120" as="geometry" />
        </mxCell>
        <mxCell id="cqikhGX2qWTY4pSoXQ4K-3" value="&lt;p style=&quot;margin:0px;margin-top:4px;text-align:center;text-decoration:underline;&quot;&gt;&lt;b&gt;:Con người&lt;/b&gt;&lt;/p&gt;&lt;hr&gt;&lt;p style=&quot;margin:0px;margin-left:8px;&quot;&gt;id = 049204520854&lt;/p&gt;&lt;p style=&quot;margin:0px;margin-left:8px;&quot;&gt;ten = &quot;Admin&quot;&lt;/p&gt;&lt;p style=&quot;margin:0px;margin-left:8px;&quot;&gt;gioitinh = NULL&lt;/p&gt;&lt;p style=&quot;margin:0px;margin-left:8px;&quot;&gt;quequan = NULL&lt;/p&gt;&lt;p style=&quot;margin:0px;margin-left:8px;&quot;&gt;email = &quot;nguyenvana@gmail.com&quot;&lt;/p&gt;&lt;p style=&quot;margin:0px;margin-left:8px;&quot;&gt;sdt = &quot;0987654321&quot;&lt;/p&gt;" style="verticalAlign=top;align=left;overflow=fill;fontSize=12;fontFamily=Helvetica;html=1;whiteSpace=wrap;fillColor=#fff2cc;strokeColor=#d6b656;gradientColor=#ffd966;" parent="WIyWlLk6GJQsqaUBKTNV-1" vertex="1">
          <mxGeometry x="1680" y="305" width="200" height="120" as="geometry" />
        </mxCell>
        <mxCell id="cqikhGX2qWTY4pSoXQ4K-4" value="" style="endArrow=diamondThin;endFill=1;endSize=24;html=1;rounded=0;entryX=1;entryY=0.5;entryDx=0;entryDy=0;exitX=0;exitY=0.5;exitDx=0;exitDy=0;" parent="WIyWlLk6GJQsqaUBKTNV-1" source="cqikhGX2qWTY4pSoXQ4K-0" target="cqikhGX2qWTY4pSoXQ4K-2" edge="1">
          <mxGeometry width="160" relative="1" as="geometry">
            <mxPoint x="1415" y="254" as="sourcePoint" />
            <mxPoint x="1300" y="254" as="targetPoint" />
          </mxGeometry>
        </mxCell>
        <mxCell id="cqikhGX2qWTY4pSoXQ4K-5" value="" style="endArrow=diamondThin;endFill=1;endSize=24;html=1;rounded=0;entryX=1;entryY=0.5;entryDx=0;entryDy=0;exitX=0;exitY=0.5;exitDx=0;exitDy=0;" parent="WIyWlLk6GJQsqaUBKTNV-1" source="cqikhGX2qWTY4pSoXQ4K-1" target="cqikhGX2qWTY4pSoXQ4K-3" edge="1">
          <mxGeometry width="160" relative="1" as="geometry">
            <mxPoint x="1970" y="220" as="sourcePoint" />
            <mxPoint x="1890" y="225" as="targetPoint" />
          </mxGeometry>
        </mxCell>
        <mxCell id="cqikhGX2qWTY4pSoXQ4K-6" value="&lt;p style=&quot;margin:0px;margin-top:4px;text-align:center;text-decoration:underline;&quot;&gt;&lt;b&gt;:Học viên&lt;/b&gt;&lt;/p&gt;&lt;hr&gt;&lt;p style=&quot;margin:0px;margin-left:8px;&quot;&gt;idHV = 1&lt;/p&gt;" style="verticalAlign=top;align=left;overflow=fill;fontSize=12;fontFamily=Helvetica;html=1;whiteSpace=wrap;fillColor=#fff2cc;strokeColor=#d6b656;gradientColor=#ffd966;" parent="WIyWlLk6GJQsqaUBKTNV-1" vertex="1">
          <mxGeometry x="1160" y="465" width="160" height="50" as="geometry" />
        </mxCell>
        <mxCell id="cqikhGX2qWTY4pSoXQ4K-7" value="&lt;p style=&quot;margin:0px;margin-top:4px;text-align:center;text-decoration:underline;&quot;&gt;&lt;b&gt;:Quản lý&lt;/b&gt;&lt;/p&gt;&lt;hr&gt;&lt;p style=&quot;margin:0px;margin-left:8px;&quot;&gt;idQL = 1&lt;/p&gt;&lt;p style=&quot;margin:0px;margin-left:8px;&quot;&gt;chucvu = &quot;Quản lý&quot;&lt;/p&gt;" style="verticalAlign=top;align=left;overflow=fill;fontSize=12;fontFamily=Helvetica;html=1;whiteSpace=wrap;fillColor=#fff2cc;strokeColor=#d6b656;gradientColor=#ffd966;" parent="WIyWlLk6GJQsqaUBKTNV-1" vertex="1">
          <mxGeometry x="1700" y="465" width="160" height="70" as="geometry" />
        </mxCell>
        <mxCell id="cqikhGX2qWTY4pSoXQ4K-8" value="&lt;p style=&quot;margin:0px;margin-top:4px;text-align:center;text-decoration:underline;&quot;&gt;&lt;b&gt;:Đánh giá&lt;/b&gt;&lt;/p&gt;&lt;hr&gt;&lt;p style=&quot;margin:0px;margin-left:8px;&quot;&gt;idDG = 1&lt;/p&gt;&lt;p style=&quot;margin:0px;margin-left:8px;&quot;&gt;idHV = 1&lt;/p&gt;&lt;p style=&quot;margin:0px;margin-left:8px;&quot;&gt;idKH = 1&lt;/p&gt;&lt;p style=&quot;margin:0px;margin-left:8px;&quot;&gt;noidung = &quot;OK!&quot;&lt;/p&gt;&lt;p style=&quot;margin:0px;margin-left:8px;&quot;&gt;sao = 5&lt;/p&gt;" style="verticalAlign=top;align=left;overflow=fill;fontSize=12;fontFamily=Helvetica;html=1;whiteSpace=wrap;fillColor=#fff2cc;strokeColor=#d6b656;gradientColor=#ffd966;" parent="WIyWlLk6GJQsqaUBKTNV-1" vertex="1">
          <mxGeometry x="1451" y="465" width="160" height="110" as="geometry" />
        </mxCell>
        <mxCell id="cqikhGX2qWTY4pSoXQ4K-9" value="" style="edgeStyle=none;html=1;endArrow=none;verticalAlign=bottom;rounded=0;exitX=0.5;exitY=1;exitDx=0;exitDy=0;entryX=0.5;entryY=0;entryDx=0;entryDy=0;" parent="WIyWlLk6GJQsqaUBKTNV-1" source="cqikhGX2qWTY4pSoXQ4K-2" target="cqikhGX2qWTY4pSoXQ4K-6" edge="1">
          <mxGeometry width="160" relative="1" as="geometry">
            <mxPoint x="1100" y="605" as="sourcePoint" />
            <mxPoint x="1260" y="605" as="targetPoint" />
          </mxGeometry>
        </mxCell>
        <mxCell id="cqikhGX2qWTY4pSoXQ4K-10" value="" style="edgeStyle=none;html=1;endArrow=none;verticalAlign=bottom;rounded=0;exitX=0.5;exitY=1;exitDx=0;exitDy=0;entryX=0.5;entryY=0;entryDx=0;entryDy=0;" parent="WIyWlLk6GJQsqaUBKTNV-1" source="cqikhGX2qWTY4pSoXQ4K-3" target="cqikhGX2qWTY4pSoXQ4K-7" edge="1">
          <mxGeometry width="160" relative="1" as="geometry">
            <mxPoint x="1250" y="434" as="sourcePoint" />
            <mxPoint x="1250" y="475" as="targetPoint" />
          </mxGeometry>
        </mxCell>
        <mxCell id="cqikhGX2qWTY4pSoXQ4K-11" value="" style="endArrow=diamondThin;endFill=1;endSize=24;html=1;rounded=0;exitX=0;exitY=0.5;exitDx=0;exitDy=0;entryX=1;entryY=0.25;entryDx=0;entryDy=0;edgeStyle=orthogonalEdgeStyle;" parent="WIyWlLk6GJQsqaUBKTNV-1" source="cqikhGX2qWTY4pSoXQ4K-8" target="cqikhGX2qWTY4pSoXQ4K-6" edge="1">
          <mxGeometry width="160" relative="1" as="geometry">
            <mxPoint x="630" y="775" as="sourcePoint" />
            <mxPoint x="418" y="723" as="targetPoint" />
          </mxGeometry>
        </mxCell>
        <mxCell id="cqikhGX2qWTY4pSoXQ4K-12" value="&lt;p style=&quot;margin:0px;margin-top:4px;text-align:center;text-decoration:underline;&quot;&gt;&lt;b&gt;:Giỏ hàng&lt;/b&gt;&lt;/p&gt;&lt;hr&gt;&lt;p style=&quot;margin:0px;margin-left:8px;&quot;&gt;idGH = 1&lt;/p&gt;&lt;p style=&quot;margin:0px;margin-left:8px;&quot;&gt;idKH = 1&lt;/p&gt;&lt;p style=&quot;margin:0px;margin-left:8px;&quot;&gt;soluong = 1&lt;/p&gt;&lt;p style=&quot;margin:0px;margin-left:8px;&quot;&gt;thanhtien = 299000&lt;/p&gt;" style="verticalAlign=top;align=left;overflow=fill;fontSize=12;fontFamily=Helvetica;html=1;whiteSpace=wrap;fillColor=#fff2cc;strokeColor=#d6b656;gradientColor=#ffd966;" parent="WIyWlLk6GJQsqaUBKTNV-1" vertex="1">
          <mxGeometry x="1160" y="705" width="160" height="95" as="geometry" />
        </mxCell>
        <mxCell id="cqikhGX2qWTY4pSoXQ4K-13" value="" style="endArrow=diamondThin;endFill=1;endSize=24;html=1;rounded=0;exitX=0.5;exitY=0;exitDx=0;exitDy=0;entryX=0.5;entryY=1;entryDx=0;entryDy=0;edgeStyle=orthogonalEdgeStyle;" parent="WIyWlLk6GJQsqaUBKTNV-1" source="cqikhGX2qWTY4pSoXQ4K-12" target="cqikhGX2qWTY4pSoXQ4K-6" edge="1">
          <mxGeometry width="160" relative="1" as="geometry">
            <mxPoint x="1461" y="530" as="sourcePoint" />
            <mxPoint x="1330" y="488" as="targetPoint" />
          </mxGeometry>
        </mxCell>
        <mxCell id="cqikhGX2qWTY4pSoXQ4K-14" value="&lt;p style=&quot;margin:0px;margin-top:4px;text-align:center;text-decoration:underline;&quot;&gt;&lt;b&gt;:Khóa học&lt;/b&gt;&lt;/p&gt;&lt;hr&gt;&lt;p style=&quot;margin:0px;margin-left:8px;&quot;&gt;idKH = 1&lt;/p&gt;&lt;p style=&quot;margin:0px;margin-left:8px;&quot;&gt;tenKH = &quot;Khóa học PHP&quot;&lt;/p&gt;&lt;p style=&quot;margin:0px;margin-left:8px;&quot;&gt;tacgia = &quot;Admin&quot;&lt;/p&gt;&lt;p style=&quot;margin:0px;margin-left:8px;&quot;&gt;mota = &quot;Khóa học lập trình PHP là chương trình đào tạo ngắn hạn&quot;&lt;/p&gt;&lt;p style=&quot;margin:0px;margin-left:8px;&quot;&gt;giagoc = 319000&lt;/p&gt;&lt;p style=&quot;margin:0px;margin-left:8px;&quot;&gt;giahientai = 299000&lt;/p&gt;" style="verticalAlign=top;align=left;overflow=fill;fontSize=12;fontFamily=Helvetica;html=1;whiteSpace=wrap;fillColor=#fff2cc;strokeColor=#d6b656;gradientColor=#ffd966;" parent="WIyWlLk6GJQsqaUBKTNV-1" vertex="1">
          <mxGeometry x="1381" y="705" width="209" height="135" as="geometry" />
        </mxCell>
        <mxCell id="cqikhGX2qWTY4pSoXQ4K-15" value="" style="endArrow=diamondThin;endFill=1;endSize=24;html=1;rounded=0;exitX=0.5;exitY=1;exitDx=0;exitDy=0;entryX=0.5;entryY=0;entryDx=0;entryDy=0;edgeStyle=orthogonalEdgeStyle;" parent="WIyWlLk6GJQsqaUBKTNV-1" source="cqikhGX2qWTY4pSoXQ4K-8" target="cqikhGX2qWTY4pSoXQ4K-14" edge="1">
          <mxGeometry width="160" relative="1" as="geometry">
            <mxPoint x="1461" y="530" as="sourcePoint" />
            <mxPoint x="1330" y="488" as="targetPoint" />
          </mxGeometry>
        </mxCell>
        <mxCell id="cqikhGX2qWTY4pSoXQ4K-16" value="" style="endArrow=diamondThin;endFill=0;endSize=24;html=1;rounded=0;entryX=1;entryY=0.5;entryDx=0;entryDy=0;exitX=0.003;exitY=0.346;exitDx=0;exitDy=0;exitPerimeter=0;" parent="WIyWlLk6GJQsqaUBKTNV-1" source="cqikhGX2qWTY4pSoXQ4K-14" target="cqikhGX2qWTY4pSoXQ4K-12" edge="1">
          <mxGeometry width="160" relative="1" as="geometry">
            <mxPoint x="488" y="1205" as="sourcePoint" />
            <mxPoint x="418" y="1205" as="targetPoint" />
          </mxGeometry>
        </mxCell>
        <mxCell id="cqikhGX2qWTY4pSoXQ4K-17" value="&lt;p style=&quot;margin:0px;margin-top:4px;text-align:center;text-decoration:underline;&quot;&gt;&lt;b&gt;:Chi tiết đơn hàng&lt;/b&gt;&lt;/p&gt;&lt;hr&gt;&lt;p style=&quot;margin:0px;margin-left:8px;&quot;&gt;idDH = 1&lt;/p&gt;&lt;p style=&quot;margin:0px;margin-left:8px;&quot;&gt;idKH = 1&lt;/p&gt;" style="verticalAlign=top;align=left;overflow=fill;fontSize=12;fontFamily=Helvetica;html=1;whiteSpace=wrap;fillColor=#fff2cc;strokeColor=#d6b656;gradientColor=#ffd966;" parent="WIyWlLk6GJQsqaUBKTNV-1" vertex="1">
          <mxGeometry x="1630" y="705" width="160" height="70" as="geometry" />
        </mxCell>
        <mxCell id="cqikhGX2qWTY4pSoXQ4K-18" value="&lt;p style=&quot;margin:0px;margin-top:4px;text-align:center;text-decoration:underline;&quot;&gt;&lt;b&gt;:Đơn hàng&lt;/b&gt;&lt;/p&gt;&lt;hr&gt;&lt;p style=&quot;margin:0px;margin-left:8px;&quot;&gt;idDH = 1&lt;/p&gt;&lt;p style=&quot;margin:0px;margin-left:8px;&quot;&gt;ngaytao = &quot;2023-12-10&quot;&lt;/p&gt;&lt;p style=&quot;margin:0px;margin-left:8px;&quot;&gt;idHV = 1&lt;/p&gt;&lt;p style=&quot;margin:0px;margin-left:8px;&quot;&gt;tenHV = &quot;Nguyễn Văn A&quot;&lt;/p&gt;&lt;p style=&quot;margin:0px;margin-left:8px;&quot;&gt;ngayvanchuyen = &quot;2023-12-11&quot;&lt;/p&gt;&lt;p style=&quot;margin:0px;margin-left:8px;&quot;&gt;tongtien = 299000&lt;/p&gt;&lt;p style=&quot;margin:0px;margin-left:8px;&quot;&gt;thuevat = 14950&lt;/p&gt;&lt;p style=&quot;margin:0px;margin-left:8px;&quot;&gt;tinhtrang = &quot;Đang xác nhận&quot;&lt;/p&gt;" style="verticalAlign=top;align=left;overflow=fill;fontSize=12;fontFamily=Helvetica;html=1;whiteSpace=wrap;fillColor=#fff2cc;strokeColor=#d6b656;gradientColor=#ffd966;" parent="WIyWlLk6GJQsqaUBKTNV-1" vertex="1">
          <mxGeometry x="1850" y="705" width="180" height="151" as="geometry" />
        </mxCell>
        <mxCell id="cqikhGX2qWTY4pSoXQ4K-19" value="" style="edgeStyle=none;html=1;endArrow=none;verticalAlign=bottom;rounded=0;entryX=1.002;entryY=0.388;entryDx=0;entryDy=0;exitX=0;exitY=0.75;exitDx=0;exitDy=0;entryPerimeter=0;" parent="WIyWlLk6GJQsqaUBKTNV-1" source="cqikhGX2qWTY4pSoXQ4K-17" target="cqikhGX2qWTY4pSoXQ4K-14" edge="1">
          <mxGeometry width="160" relative="1" as="geometry">
            <mxPoint x="1610" y="760" as="sourcePoint" />
            <mxPoint x="1620" y="830" as="targetPoint" />
          </mxGeometry>
        </mxCell>
        <mxCell id="cqikhGX2qWTY4pSoXQ4K-20" value="" style="endArrow=diamondThin;endFill=1;endSize=24;html=1;rounded=0;exitX=0;exitY=0.5;exitDx=0;exitDy=0;entryX=1;entryY=0.5;entryDx=0;entryDy=0;edgeStyle=orthogonalEdgeStyle;" parent="WIyWlLk6GJQsqaUBKTNV-1" source="cqikhGX2qWTY4pSoXQ4K-18" target="cqikhGX2qWTY4pSoXQ4K-17" edge="1">
          <mxGeometry width="160" relative="1" as="geometry">
            <mxPoint x="1591" y="585" as="sourcePoint" />
            <mxPoint x="1521" y="715" as="targetPoint" />
          </mxGeometry>
        </mxCell>
        <mxCell id="cqikhGX2qWTY4pSoXQ4K-21" value="" style="endArrow=diamondThin;endFill=1;endSize=24;html=1;rounded=0;exitX=0.5;exitY=0;exitDx=0;exitDy=0;entryX=0.75;entryY=1;entryDx=0;entryDy=0;edgeStyle=orthogonalEdgeStyle;" parent="WIyWlLk6GJQsqaUBKTNV-1" source="cqikhGX2qWTY4pSoXQ4K-18" target="cqikhGX2qWTY4pSoXQ4K-6" edge="1">
          <mxGeometry width="160" relative="1" as="geometry">
            <mxPoint x="1250" y="715" as="sourcePoint" />
            <mxPoint x="1250" y="525" as="targetPoint" />
          </mxGeometry>
        </mxCell>
      </root>
    </mxGraphModel>
  </diagram>
</mxfile>
